<svg width="32" height="22" viewBox="0 0 32 22" fill="none" xmlns="http://www.w3.org/2000/svg">
<path d="M2.65866 13.6099C1.18975 13.6099 0 12.4419 0 10.9998C0 9.55772 1.18975 8.38971 2.65866 8.38971C4.12756 8.38971 5.31731 9.55772 5.31731 10.9998C5.31731 12.4419 4.12756 13.6099 2.65866 13.6099ZM29.2452 8.38971C27.7763 8.38971 26.5866 9.55772 26.5866 10.9998C26.5866 12.4419 27.7763 13.6099 29.2452 13.6099C30.7141 13.6099 31.9039 12.4419 31.9039 10.9998C31.9039 9.55772 30.7141 8.38971 29.2452 8.38971ZM4.05977 17.3893C2.93516 18.3158 2.7876 19.9628 3.73142 21.0669C4.67525 22.1709 6.35286 22.3158 7.47747 21.3892C8.60208 20.4626 8.74964 18.8157 7.80582 17.7116C6.86199 16.6075 5.18438 16.4627 4.05977 17.3893ZM27.8441 4.61032C28.9687 3.68374 29.1163 2.03678 28.1725 0.932719C27.2286 -0.171344 25.551 -0.316203 24.4264 0.610374C23.3018 1.53695 23.1542 3.18391 24.0981 4.28797C25.0419 5.39204 26.7195 5.53689 27.8441 4.61032ZM7.47747 0.611679C6.35286 -0.314898 4.67525 -0.171344 3.73142 0.934024C2.7876 2.03939 2.93383 3.68505 4.05977 4.61162C5.18571 5.5382 6.86199 5.39465 7.80582 4.28928C8.74964 3.18391 8.60341 1.53826 7.47747 0.611679ZM27.8441 17.3893C26.7195 16.4627 25.0419 16.6062 24.0981 17.7116C23.1542 18.8157 23.3005 20.4626 24.4264 21.3892C25.551 22.3158 27.2286 22.1722 28.1725 21.0669C29.1163 19.9628 28.9701 18.3158 27.8441 17.3893ZM21.0552 11.7959C19.9306 10.8693 18.253 11.0128 17.3092 12.1182C16.3654 13.2236 16.5116 14.8692 17.6375 15.7958C18.7635 16.7224 20.4398 16.5788 21.3836 15.4735C22.3274 14.3681 22.1812 12.7224 21.0552 11.7959ZM14.2664 6.20377C13.1417 5.27719 11.4641 5.42075 10.5203 6.52611C9.57648 7.63148 9.72271 9.27714 10.8486 10.2037C11.9746 11.1303 13.6509 10.9867 14.5947 9.88137C15.5385 8.776 15.3923 7.13035 14.2664 6.20377Z" fill="white"/>
</svg>